<svg xmlns="http://www.w3.org/2000/svg" viewBox="0 0 256 256" role="img" aria-labelledby="title">
  <title id="title">MongoDB Logo - Cyan on Black</title>
  <!-- Background -->
  <rect width="256" height="256" fill="#000000" rx="24" />
  <!-- MongoDB Leaf (simplified official path) -->
  <path fill="#00FFFF" d="M128 32c-1.5 14.3-3.6 25.5-7.8 35.3-4.3 9.8-10.7 18.1-15.3 29.5-4.5 11.4-7.2 25.9-5.4 40.5 1.9 14.6 8.2 29.2 16.5 43.3 8.3 14.1 18.6 27.5 28.1 40.9 1.6-10.8 3.6-20.7 7.9-30.4 4.2-9.7 10.7-19.2 16.4-29.2 7.6-13.2 13.6-27.9 15.1-43.5 1.5-15.6-2.1-31.9-10-45.3-7.9-13.4-20.1-23.7-30.4-34.1-7.3-7.4-12.7-15.3-15.1-26.9z"/>
</svg>
