<svg xmlns="http://www.w3.org/2000/svg" viewBox="0 0 256 256" role="img" aria-labelledby="title">
  <title id="title">Tailwind CSS Logo - Cyan on Black</title>
  <!-- Background -->
  <rect width="256" height="256" fill="#000000" rx="24" />
  <!-- Tailwind logo -->
  <path fill="#00FFFF" d="M128 64c-34.133 0-55.467 17.067-64 51.2 12.8-17.067 27.733-23.467 44.8-19.2 9.739 2.435 16.708 9.44 24.527 17.28C142.2 123.055 152.263 133.333 176 133.333c34.133 0 55.467-17.067 64-51.2-12.8 17.067-27.733 23.467-44.8 19.2-9.739-2.435-16.708-9.44-24.527-17.28C161.8 74.278 151.737 64 128 64Zm-64 69.333c-34.133 0-55.467 17.067-64 51.2 12.8-17.067 27.733-23.467 44.8-19.2 9.739 2.435 16.708 9.44 24.527 17.28C78.2 192.389 88.263 202.667 112 202.667c34.133 0 55.467-17.067 64-51.2-12.8 17.067-27.733 23.467-44.8 19.2-9.739-2.435-16.708-9.44-24.527-17.28C126.2 143.056 116.137 133.333 92 133.333Z"/>
</svg>
